<?xml version="1.0" encoding="UTF-8"?><svg id="Layer_2" xmlns="http://www.w3.org/2000/svg" width="400" height="400" viewBox="0 0 400 400"><path d="m208.17287,23.93301l51.65263,104.65967c1.32757,2.68994,3.89376,4.55439,6.86229,4.98575l115.4988,16.78296c7.47551,1.08625,10.46044,10.27294,5.05111,15.54573l-83.57572,81.46619c-2.14805,2.09383-3.12825,5.11057-2.62116,8.06711l19.72955,115.03211c1.27697,7.4453-6.53769,13.12298-13.22399,9.60779l-103.30527-54.31079c-2.65513-1.39589-5.82713-1.39589-8.48226,0l-103.30527,54.31079c-6.6863,3.51519-14.50096-2.16249-13.22399-9.60779l19.72955-115.03211c.50709-2.95654-.47311-5.97328-2.62116-8.06711L12.76229,165.90711c-5.40933-5.27279-2.42439-14.45947,5.05111-15.54573l115.4988-16.78296c2.96853-.43135,5.53473-2.2958,6.86229-4.98575l51.65263-104.65967c3.34315-6.77396,13.0026-6.77396,16.34575,0Z" fill="#fcf9f0" stroke-width="0"/></svg>